<svg viewBox="0 0 433.64 144.54" xmlns="http://www.w3.org/2000/svg"><g fill="#fff"><path d="m136.92 66.83v-2.81h-11.71v23.51h2.85v-8.89h6.87v-2.85h-6.87v-8.96z"/><path d="m153 66.83h3.44a4.81 4.81 0 0 1 0 9.62h-3.44zm5.95 12a7.63 7.63 0 0 0 -2.52-14.83h-6.29v23.53h2.86v-8.27h2.72l6 8.27h3.51z"/><path d="m189.9 66.83v-2.81h-11.71v23.51h11.71v-2.84h-8.86v-6.05h6.88v-2.85h-6.88v-8.96z"/><path d="m210 84.69h-4v-17.86h4a8.92 8.92 0 0 1 8.89 8.93 8.82 8.82 0 0 1 -8.89 8.93m0-20.69h-6.89v23.53h6.89a11.76 11.76 0 0 0 0-23.53"/><path d="m245.97 66.83v-2.81h-11.71v23.51h11.71v-2.84h-8.86v-6.05h6.88v-2.85h-6.88v-8.96z"/><path d="m275.48 64.02v18l-13.76-17.5-.43-.5h-2.1v23.51h2.85v-18l13.76 17.45.39.55h2.14v-23.51z"/><path d="m299.19 73.34c-2.49-1.09-4-1.86-4-3.87a3.05 3.05 0 0 1 3-3 2.9 2.9 0 0 1 2.34 1.12l.44.59 2.21-1.84-.44-.54a5.86 5.86 0 0 0 -10.41 3.68c0 3.92 2.95 5.21 5.55 6.35 2.43 1.06 4.53 2 4.53 4.76a4.53 4.53 0 0 1 -4.52 4.51 4.46 4.46 0 0 1 -4-2.38l-.33-.64-2.49 1.39.32.61a7.35 7.35 0 0 0 13.83-3.49c0-4.59-3.35-6.06-6.05-7.24"/><path d="m325.86 73.21h-4.77v-6.38h4.77a3.23 3.23 0 0 1 3.19 3.17 3.19 3.19 0 0 1 -3.19 3.19m-4.77 2.85h4.77a4.32 4.32 0 1 1 0 8.63h-4.77zm8.81-1.6a6 6 0 0 0 -4-10.44h-7.62v23.53h7.62a7.15 7.15 0 0 0 4-13.07"/><path d="m357.56 85.09a9.32 9.32 0 1 1 9.33-9.33 9.33 9.33 0 0 1 -9.33 9.33m0-21.47a12.06 12.06 0 0 0 -8.56 3.55 12.15 12.15 0 1 0 8.59-3.55"/><path d="m385.58 66.83h3.42a4.81 4.81 0 0 1 0 9.62h-3.45zm6 12a7.63 7.63 0 0 0 -2.58-14.83h-6.29v23.53h2.84v-8.27h2.73l6 8.27h3.51z"/><path d="m420.79 74.28v2.85h9.92a9.54 9.54 0 0 1 -9.25 8 9.32 9.32 0 0 1 0-18.63 9.35 9.35 0 0 1 6.56 2.74l.51.51 2-2.06-.51-.5a14.07 14.07 0 0 0 -2.48-1.89l-.21-.12a12.17 12.17 0 0 0 -11.87 0l-.07.06a12.21 12.21 0 0 0 -6.09 10.58 11.52 11.52 0 0 0 1.53 5.84l.11.18a12.16 12.16 0 0 0 10.5 6.09 11.9 11.9 0 0 0 5.81-1.52l.29-.12a12.23 12.23 0 0 0 6-10.62v-1.4z"/><path d="m133.31 120.61a4.61 4.61 0 0 1 0 6.52 4.75 4.75 0 0 1 -2.83 1.32h-5.34v-15h4.86a3.89 3.89 0 0 1 2.75 6.65c.18.18.38.33.56.51zm-6.2-1.35h2.89a1.93 1.93 0 0 0 1.35-.55 1.9 1.9 0 0 0 0-2.73 1.93 1.93 0 0 0 -1.35-.55h-2.92zm0 7.24h2.89a2.66 2.66 0 0 0 1.88-.77 2.7 2.7 0 0 0 .75-1.85 2.77 2.77 0 0 0 -.75-1.88 2.7 2.7 0 0 0 -1.88-.77h-2.92z"/><path d="m148.71 113.18a7.77 7.77 0 0 1 7.77 7.78 7.76 7.76 0 0 1 -13.27 5.49 7.76 7.76 0 0 1 -2.27-5.49 7.77 7.77 0 0 1 7.77-7.78zm-4.1 3.68a5.78 5.78 0 0 0 -1.7 4.1 5.8 5.8 0 0 0 11.6 0 5.8 5.8 0 0 0 -9.9-4.1z"/><path d="m171 128.48h-7.58v-15h2v13h5.58z"/><path d="m180.88 113.46v15h-2v-15z"/><path d="m196.21 121.91v-2h7.79v1a7.65 7.65 0 0 1 -1 3.92 7.92 7.92 0 0 1 -2.85 2.87l-.25.13a7.82 7.82 0 0 1 -5.65.65 7.71 7.71 0 0 1 -4.73-3.63l-.15-.22a7.62 7.62 0 0 1 -.62-5.64 7.7 7.7 0 0 1 3.6-4.73l.25-.12a7.73 7.73 0 0 1 3.65-.93 7.77 7.77 0 0 1 3.63.93l.25.12a7.84 7.84 0 0 1 1.6 1.23l-1.4 1.4a6.61 6.61 0 0 0 -1.2-.93 5.86 5.86 0 0 0 -2.88-.77 5.77 5.77 0 0 0 -5.6 4.3 5.8 5.8 0 0 0 8.5 6.52 5.43 5.43 0 0 0 2.12-2.13 5.71 5.71 0 0 0 .7-1.94z"/></g><g fill="#d9c4b0"><rect height="3.36" rx="1.68" width="79.21"/><path d="m60.25 65.31h37.94a1.69 1.69 0 0 0 1.68-1.69 1.68 1.68 0 0 0 -1.68-1.68h-34.57a1.69 1.69 0 0 1 -1.69-1.68v-13.92a1.69 1.69 0 0 1 1.69-1.68h34.57a1.68 1.68 0 0 0 1.68-1.66 1.69 1.69 0 0 0 -1.68-1.69h-37.94a1.69 1.69 0 0 0 -1.68 1.69v20.62a1.69 1.69 0 0 0 1.68 1.69z"/><path d="m60.25 106.61a1.69 1.69 0 0 0 1.69-1.69v-17.29a1.68 1.68 0 0 1 1.68-1.63h34.57a1.68 1.68 0 0 0 1.68-1.68 1.69 1.69 0 0 0 -1.68-1.69h-37.94a1.69 1.69 0 0 0 -1.68 1.69v20.65a1.69 1.69 0 0 0 1.68 1.64z"/><path d="m37.92 22.33v79.22a1.68 1.68 0 0 1 -1.68 1.68h-34.56a1.69 1.69 0 0 0 -1.68 1.69 1.68 1.68 0 0 0 1.68 1.68h34.56a1.69 1.69 0 0 1 1.68 1.69v34.57a1.68 1.68 0 0 0 1.68 1.68h1.69v-118.85a1.68 1.68 0 0 1 1.71-1.69h75.85a1.68 1.68 0 0 0 1.68-1.68 1.68 1.68 0 0 0 -1.68-1.68h-79.25a1.68 1.68 0 0 0 -1.68 1.69z"/></g></svg>